<?xml version="1.0" encoding="UTF-8" standalone="no"?>
<svg xmlns:dc="http://purl.org/dc/elements/1.1/" xmlns:cc="http://creativecommons.org/ns#" xmlns:rdf="http://www.w3.org/1999/02/22-rdf-syntax-ns#" xmlns:svg="http://www.w3.org/2000/svg" xmlns="http://www.w3.org/2000/svg" xmlns:sodipodi="http://sodipodi.sourceforge.net/DTD/sodipodi-0.dtd" xmlns:inkscape="http://www.inkscape.org/namespaces/inkscape" id="svg3336" version="1.1" inkscape:version="0.91 r13725" width="800" height="800" viewBox="0 0 800 800" sodipodi:docname="КВБЗ_логотип2.svg">
  <metadata id="metadata3342">
    <rdf:RDF>
      <cc:Work rdf:about="">
        <dc:format>image/svg+xml</dc:format>
        <dc:type rdf:resource="http://purl.org/dc/dcmitype/StillImage"/>
        <dc:title/>
      </cc:Work>
    </rdf:RDF>
  </metadata>
  <defs id="defs3340"/>
  <sodipodi:namedview pagecolor="#ffffff" bordercolor="#666666" borderopacity="1" objecttolerance="10" gridtolerance="10" guidetolerance="10" inkscape:pageopacity="0" inkscape:pageshadow="2" inkscape:window-width="1600" inkscape:window-height="837" id="namedview3338" showgrid="true" inkscape:zoom="0.35251153" inkscape:cx="184.00698" inkscape:cy="202.68785" inkscape:window-x="-8" inkscape:window-y="-8" inkscape:window-maximized="1" inkscape:current-layer="layer3">
  </sodipodi:namedview>
  <g inkscape:groupmode="layer" id="layer3" inkscape:label="Layer 1" style="display:inline" transform="translate(0,697)">
    <g id="g4191">
      <path sodipodi:nodetypes="cccccccccccsscssccccccccccccc" inkscape:connector-curvature="0" id="path4171" d="m 539.62067,-358.52901 0.0384,-90.53095 c -0.11672,-39.48115 -30.45249,-69.81685 -69.87844,-69.87845 l -210.00486,-0.0616 0,72.00001 40,0 0,128 72.83308,0.0448 c 25.1327,0.0456 39.16692,-18.90128 39.24132,-45.49748 L 411.77577,-447 l 48,0 -0.25072,95.45123 c -0.0304,11.62713 -1.35529,25.20457 -8.45263,36.71507 -7.29665,11.8337 -22.43345,18.93964 -22.43345,18.93964 0,0 15.1368,7.10593 22.43343,18.93963 7.09735,11.5105 8.42209,25.08794 8.45264,36.71507 l 0.25072,95.45122 -48.00001,0 0.0744,-82.54732 c -0.0744,-26.59619 -14.10861,-45.5427 -39.24132,-45.4977 l -72.83308,0.0448 0,128 -40,0 0,72.000028 210.00486,-0.0616 c 39.42595,-0.0616 69.76175,-30.397328 69.87844,-69.878478 l -0.0384,-90.53095 c -0.15512,-34.03161 -28.87834,-61.23788 -55.58227,-62.63493 26.70393,-1.39706 55.42715,-28.60332 55.58227,-62.63494 z" style="fill:#eb0d0e;fill-opacity:1;stroke:#eb0d0e;stroke-width:8.00328064;stroke-miterlimit:0.5;stroke-dasharray:none;stroke-opacity:1"/>
      <ellipse ry="376.76141" rx="376.76144" cy="-296.96143" cx="399.96146" id="path3346" style="display:inline;fill:none;fill-opacity:1;stroke:#eb0d0e;stroke-width:40;stroke-miterlimit:0.5;stroke-dasharray:none;stroke-opacity:1"/>
    </g>
  </g>
</svg>
